<svg version="1" xmlns="http://www.w3.org/2000/svg" width="800" height="800" viewBox="0 0 600.000000 600.000000"><path d="M281.8 57.5c-.2.1-3.4.5-7.3.8-16.2 1.4-44 7.7-56 12.7-1.1.4-3.6 1.4-5.5 2-12.7 4.5-32.2 14.7-47 24.5-15.6 10.4-28.5 21.2-41.8 35-9.2 9.5-25.2 29.6-28.5 35.8-.7 1.2-2.4 4-3.8 6.2-11.5 17.9-23.7 48.1-28.8 71.2-4.6 20.4-5.6 30.6-5.6 54.8 0 22.9 1.2 34.5 5.5 53 .6 2.7 1.4 6.1 1.6 7.5 1.1 5.7 7.6 24.7 11.6 34 18.9 44 48.6 79.6 89.1 107.3 3.8 2.6 7 4.7 7.2 4.7.2 0 3.9 2.1 8.2 4.6 25.6 15.2 59.9 26.3 93.3 30.2 13 1.5 56.7.6 62.3-1.3.7-.2 2.8-.6 4.7-.9 4.8-.8 6.1-1 18.1-3.9 64.5-15.6 122-60 154.1-119.2 5.4-9.8 11.3-22.5 13.8-29.5.6-1.9 1.6-4.4 2.1-5.5 1-2.4 4.5-13.9 6.4-21 1.6-5.9 4.2-19.3 5-26.1.4-2.7 1-7.6 1.5-10.9.9-6.2.5-46.3-.4-52.5-5.4-33.1-11.3-52.9-23.2-77.5-7.1-14.8-22.9-39.6-30.3-47.5-.9-1-3.8-4.3-6.6-7.5-5.6-6.5-18.2-18.9-23.5-23.1-1.9-1.6-3.7-3.1-4-3.4-.9-1.1-16.4-12.5-20.5-15.1-9.8-6.4-14.8-9.1-26-14.7-33.7-16.8-69-25-107.7-25-9.7 0-17.8.1-18 .3z"/></svg>